<?xml version="1.0" encoding="UTF-8"?>
<svg version="1.1" xmlns="http://www.w3.org/2000/svg" width="48" height="48">
<path d="M0 0 C4.68796317 2.8950501 8.77605467 6.42344712 10.234375 11.89453125 C11.16656452 18.74158704 11.3930195 24.99387098 7.671875 31.01953125 C3.66347868 35.99068326 0.31000422 38.47580101 -6.0078125 39.3359375 C-13.1275177 39.69575056 -18.34453314 39.19135672 -23.98828125 34.640625 C-29.08369757 29.63479842 -30.03494232 26.05750776 -30.390625 19.01953125 C-30.17838344 12.13997715 -28.58962241 7.80486419 -23.765625 2.89453125 C-17.29271618 -2.6344117 -7.84970384 -3.13766411 0 0 Z " fill="#424242" transform="translate(33.765625,5.10546875)"/>
<path d="M0 0 C0.64324219 0.16371094 1.28648438 0.32742188 1.94921875 0.49609375 C5.92840171 1.15334676 9.7881437 1.106353 13.8125 1.0625 C14.60076172 1.05798828 15.38902344 1.05347656 16.20117188 1.04882812 C18.13414761 1.03711312 20.06708393 1.01917998 22 1 C23.6101289 6.95997326 24.44044045 10.92957237 23 17 C21.1875 19 21.1875 19 19 20 C17.68 20 16.36 20 15 20 C15.33 20.66 15.66 21.32 16 22 C16.06950541 23.54023996 16.08452357 25.08334988 16.0625 26.625 C16.05347656 27.44226563 16.04445313 28.25953125 16.03515625 29.1015625 C16.02355469 29.72804688 16.01195313 30.35453125 16 31 C16.66 31.33 17.32 31.66 18 32 C13.38 32 8.76 32 4 32 C4.66 31.67 5.32 31.34 6 31 C6 29.35 6 27.7 6 26 C5.2575 26.12375 4.515 26.2475 3.75 26.375 C1 26 1 26 -1.3125 23 C-1.869375 22.01 -2.42625 21.02 -3 20 C-2.1646875 20.433125 -2.1646875 20.433125 -1.3125 20.875 C1.08494645 22.0413253 3.51596939 23.0339881 6 24 C5.28360801 20.71156462 5.28360801 20.71156462 2 19.375 C-1 17 -1 17 -1.65234375 14.77734375 C-1.91775871 12.48314046 -2.10764662 10.30738193 -2 8 C-1.67 7.67 -1.34 7.34 -1 7 C-0.63239269 4.67182036 -0.29758419 2.3381615 0 0 Z " fill="#F9F9F9" transform="translate(13,12)"/>
</svg>
